<?xml version="1.0" encoding="UTF-8" standalone="no"?>
<!-- Created with Inkscape (http://www.inkscape.org/) -->

<svg
   width="478.26752mm"
   height="184.0257mm"
   viewBox="0 0 478.26752 184.0257"
   version="1.1"
   id="svg1"
   sodipodi:docname="LOGO PORTUGES.svg"
   inkscape:version="1.4.2 (f4327f4, 2025-05-13)"
   xmlns:inkscape="http://www.inkscape.org/namespaces/inkscape"
   xmlns:sodipodi="http://sodipodi.sourceforge.net/DTD/sodipodi-0.dtd"
   xmlns:xlink="http://www.w3.org/1999/xlink"
   xmlns="http://www.w3.org/2000/svg"
   xmlns:svg="http://www.w3.org/2000/svg">
  <sodipodi:namedview
     id="namedview1"
     pagecolor="#ffffff"
     bordercolor="#000000"
     borderopacity="0.25"
     inkscape:showpageshadow="2"
     inkscape:pageopacity="0.0"
     inkscape:pagecheckerboard="0"
     inkscape:deskcolor="#d1d1d1"
     inkscape:document-units="mm"
     inkscape:zoom="0.31181445"
     inkscape:cx="848.26088"
     inkscape:cy="370.4126"
     inkscape:window-width="1366"
     inkscape:window-height="697"
     inkscape:window-x="-8"
     inkscape:window-y="-8"
     inkscape:window-maximized="1"
     inkscape:current-layer="layer1" />
  <defs
     id="defs1">
    <linearGradient
       id="linearGradient21"
       inkscape:collect="always">
      <stop
         style="stop-color:#232b7b;stop-opacity:1;"
         offset="0"
         id="stop21" />
      <stop
         style="stop-color:#232b7b;stop-opacity:0;"
         offset="1"
         id="stop22" />
    </linearGradient>
    <linearGradient
       id="linearGradient18"
       inkscape:collect="always">
      <stop
         style="stop-color:#5671a1;stop-opacity:1;"
         offset="0"
         id="stop18" />
      <stop
         style="stop-color:#88d1d7;stop-opacity:1;"
         offset="1"
         id="stop19" />
    </linearGradient>
    <linearGradient
       id="linearGradient7"
       inkscape:collect="always">
      <stop
         style="stop-color:#3b70a3;stop-opacity:1;"
         offset="0.24085365"
         id="stop7" />
      <stop
         style="stop-color:#529bbe;stop-opacity:1;"
         offset="0.45472288"
         id="stop9" />
      <stop
         style="stop-color:#61b1c8;stop-opacity:1;"
         offset="0.60927862"
         id="stop10" />
      <stop
         style="stop-color:#77c7d2;stop-opacity:1;"
         offset="0.76500517"
         id="stop12" />
      <stop
         style="stop-color:#88d1d7;stop-opacity:1;"
         offset="0.98780489"
         id="stop8" />
    </linearGradient>
    <linearGradient
       inkscape:collect="always"
       xlink:href="#linearGradient7"
       id="linearGradient8"
       x1="17.74375"
       y1="37.152084"
       x2="74.443748"
       y2="137.95209"
       gradientUnits="userSpaceOnUse" />
    <linearGradient
       inkscape:collect="always"
       xlink:href="#linearGradient7"
       id="linearGradient16"
       gradientUnits="userSpaceOnUse"
       x1="17.74375"
       y1="37.152084"
       x2="74.443748"
       y2="137.95209"
       gradientTransform="matrix(-1,0,0,1,191.13831,0.49816973)" />
    <linearGradient
       inkscape:collect="always"
       xlink:href="#linearGradient18"
       id="linearGradient19"
       x1="70.325737"
       y1="69.762253"
       x2="78.811028"
       y2="147.82684"
       gradientUnits="userSpaceOnUse"
       gradientTransform="translate(-0.74129866,-0.42310065)" />
    <linearGradient
       inkscape:collect="always"
       xlink:href="#linearGradient21"
       id="linearGradient22"
       x1="81.043747"
       y1="13.452083"
       x2="105.44669"
       y2="151.72043"
       gradientUnits="userSpaceOnUse" />
  </defs>
  <g
     inkscape:label="Capa 1"
     inkscape:groupmode="layer"
     id="layer1"
     transform="translate(152.98406,-23.768649)">
    <path
       d="m -141.70479,207.1223 c -0.21403,-0.79862 -0.21041,-9.65645 0.005,-12.20447 l 0.17175,-2.03169 3.46627,0.0735 3.46628,0.0736 0.0703,7.17124 0.0703,7.17125 -1.79012,0.16906 c -0.98457,0.093 -2.57991,0.16991 -3.5452,0.17094 -1.59719,0.002 -1.76943,-0.0517 -1.91461,-0.59343 z m 33.56855,0.18556 c -2.4173,-0.66274 -3.14506,-1.12558 -3.9103,-2.48691 l -0.72085,-1.28237 v -8.36091 -8.36092 l 0.92529,-1.28794 c 0.68375,-0.95173 1.28005,-1.43537 2.28424,-1.8527 1.3091,-0.54403 1.74102,-0.56475 11.774714,-0.56475 h 10.41576 v 2.75641 2.75642 l -1.91824,0.10052 c -1.05502,0.0553 -4.36081,0.1301 -7.3462,0.16625 -6.565634,0.0795 -7.222964,0.15164 -8.066794,0.88534 -0.66028,0.57411 -0.66043,0.57538 -0.66043,5.53435 v 4.9601 l 0.98633,0.81302 0.98632,0.81301 h 7.703914 c 9.10574,0 8.57968,-0.18127 8.57968,2.95639 0,3.06759 0.72386,2.86871 -10.33958,2.84078 -7.053394,-0.0178 -9.698914,-0.11332 -10.693854,-0.38609 z m 32.952964,-0.21676 c -0.35179,-0.9253 -0.008,-23.74056 0.35923,-23.84956 0.15892,-0.0472 1.62683,-0.15239 3.26202,-0.23386 l 2.97308,-0.14811 0.40036,0.77421 c 0.30107,0.58221 0.40036,1.68595 0.40036,4.45052 0,3.22552 0.0593,3.72999 0.48386,4.11418 0.42644,0.38593 1.38004,0.43788 8.03739,0.43788 5.92833,0 7.61582,-0.075 7.84299,-0.34876 0.16253,-0.19584 0.37975,-2.25499 0.49541,-4.69635 l 0.20598,-4.3476 3.30729,-0.15535 c 1.81901,-0.0854 3.37707,-0.0854 3.46235,0 0.0853,0.0854 0.10091,5.60591 0.0347,12.26771 l -0.12035,12.11236 -3.342,-0.0738 -3.342,-0.0738 -0.20549,-4.23334 c -0.17152,-3.53338 -0.28088,-4.29214 -0.66146,-4.58902 -0.36952,-0.28826 -1.86061,-0.32282 -7.8643,-0.18231 -4.07458,0.0954 -7.61669,0.23368 -7.87136,0.30738 -0.414,0.1198 -0.46302,0.54736 -0.46302,4.03879 0,3.73954 -0.0259,3.92914 -0.61236,4.48008 -0.55355,0.52004 -0.89725,0.57529 -3.57843,0.57529 -2.87622,0 -2.97327,-0.019 -3.20425,-0.62651 z m 42.96996,0.0132 c -0.1134,-0.45185 0.48499,-1.79249 2.27336,-5.09323 1.33501,-2.46398 4.03366,-7.51605 5.99702,-11.22683 1.96336,-3.71078 3.81633,-7.01477 4.11772,-7.34219 0.52478,-0.57011 0.72868,-0.59531 4.81559,-0.59531 h 4.2676 l 0.8073603,0.85989 c 0.44405,0.47295 1.8189704,2.82443 3.0553804,5.22552 2.08068,4.04067 7.29865007,13.84762 8.8909105,16.7101 0.5798501,1.04242 0.6314401,1.29684 0.3353201,1.65364 -0.3821801,0.46051 -2.78562053,0.56704 -5.7657106,0.25555 l -1.58942,-0.16612 -0.93096,-1.61981 c -1.5602,-2.71463 -1.88878,-3.32076 -4.1770007,-7.70523 -3.47953,-6.66714 -3.89332,-7.38517 -4.48118,-7.77605 -0.30416,-0.20225 -0.59052,-0.32131 -0.63634,-0.26459 -0.0458,0.0567 -1.43213,2.60345 -3.08068,5.65939 -1.64854,3.05594 -3.51765,6.50875 -4.15357,7.67292 -0.63592,1.16416 -1.3498,2.49887 -1.5864,2.966 -0.58423,1.1535 -1.4647,1.39962 -5.00689,1.39962 -2.91459,0 -3.00248,-0.0171 -3.15211,-0.61327 z m 54.10175,0.20858 c -3.72388,-0.30014 -4.26847,-0.40929 -5.68854,-1.14017 -3.33562,-1.71677 -3.81937,-3.54873 -3.81937,-14.46391 v -7.56441 l 0.70273,-0.65127 c 0.67436,-0.62497 0.80521,-0.64494 3.24115,-0.4946 1.39613,0.0862 2.66859,0.19543 2.82768,0.24281 0.19509,0.0581 0.3508,2.61165 0.47824,7.84282 0.21675,8.89694 0.23898,8.98522 2.5584,10.16056 1.22591,0.62122 1.51187,0.65203 6.05215,0.65203 4.62053,0 4.80895,-0.0214 6.19684,-0.70203 2.19713,-1.07758 2.22312,-1.18144 2.41591,-9.65708 0.0905,-3.97962 0.22023,-7.50721 0.28823,-7.83908 0.12162,-0.59353 0.17654,-0.60219 3.35772,-0.52917 l 3.23408,0.0742 0.15917,9.12813 0.15917,9.12812 -0.80349,1.8073 c -0.77753,1.74887 -0.86392,1.83788 -2.67272,2.7538 -1.79355,0.9082 -2.05128,0.96046 -6.36713,1.29092 -5.31246,0.40677 -6.8498,0.4019 -12.32022,-0.039 z m 52.20616,0.11626 c -0.25418,-0.26635 -0.33073,-3.00415 -0.33073,-11.82835 0,-10.37235 0.0439,-11.55603 0.45392,-12.25021 l 0.45392,-0.76843 h 3.08752 c 4.43089,0 4.06041,-1.24932 3.86835,13.04479 -0.0858,6.3882 -0.21171,11.67057 -0.27973,11.73859 -0.068,0.068 -1.65342,0.18815 -3.5231,0.26693 -2.608,0.1099 -3.47642,0.0626 -3.73015,-0.20332 z m 19.556992,-0.83716 c -0.19584,-0.77776 -0.21402,-3.65991 -0.0588,-9.32657 0.21657,-7.90768 0.24798,-8.253 0.87833,-9.65617 0.8583,-1.9106 2.61167,-3.24511 5.40281,-4.11214 2.011694,-0.6249 2.305784,-0.64253 10.784394,-0.64639 8.63892,-0.004 8.73579,0.002 10.91285,0.68061 2.45015,0.76362 4.12826,2.02185 5.25047,3.93676 l 0.63951,1.09124 0.0132,8.98381 c 0.007,4.9411 0.0102,9.19218 0.007,9.44684 -0.006,0.41835 -0.35991,0.46302 -3.66902,0.46302 h -3.66241 l -0.17405,-4.80492 c -0.0957,-2.6427 -0.17404,-6.22252 -0.17404,-7.95515 0,-2.97959 -0.037,-3.19878 -0.68341,-4.04623 -1.04454,-1.36946 -2.61308,-1.71454 -7.79347,-1.71454 -5.80718,0 -7.32732,0.2969 -8.6894,1.69709 l -1.05161,1.08104 -0.18848,7.83655 -0.18849,7.83655 -1.748924,0.16521 c -0.96191,0.0909 -2.598,0.16607 -3.63575,0.1671 l -1.88681,0.002 z m 46.895724,0.46335 c -0.27459,-1.09407 -0.003,-4.63235 0.37391,-4.86508 0.18614,-0.11504 4.46153,-0.29096 9.50085,-0.39092 5.98939,-0.1188 9.28329,-0.28207 9.51147,-0.47144 0.55804,-0.46312 0.44471,-2.27176 -0.1627,-2.59684 -0.32166,-0.17215 -3.6024,-0.2739 -8.83123,-0.2739 -9.54938,0 -9.74092,-0.0345 -10.86709,-1.95613 -0.68027,-1.16079 -0.69199,-1.26563 -0.69199,-6.1855 v -5.0047 l 1.35286,-1.14075 c 0.86087,-0.72589 1.75092,-1.21787 2.4474,-1.35281 1.31771,-0.2553 17.49974,-0.30238 21.13727,-0.0615 l 2.58025,0.17086 0.26829,0.99636 c 0.36206,1.3446 0.37548,3.39258 0.0281,4.28157 l -0.28436,0.7276 h -9.49054 c -9.05253,0 -9.51196,0.0237 -9.95447,0.51264 -0.36,0.3978 -0.42325,0.75343 -0.28234,1.5875 l 0.1816,1.07486 1.76268,9.6e-4 c 0.96947,5.3e-4 4.91784,0.0688 8.77414,0.15171 7.9235,0.17036 8.55609,0.30388 9.51687,2.00873 0.76496,1.35739 1.1486,6.46676 0.68609,9.13763 -0.26625,1.53756 -0.52071,2.13892 -1.3155,3.10885 l -0.98539,1.20254 h -12.54495 -12.54496 z m 45.73468,0.23475 c -2.70816,-0.5334 -4.66596,-1.93144 -5.81206,-4.15031 l -0.84706,-1.63991 -0.0128,-6.14402 c -0.0123,-5.89288 0.0126,-6.20163 0.61057,-7.55366 0.91218,-2.06258 2.66708,-3.46662 5.36798,-4.29473 2.1184,-0.64951 2.30788,-0.66071 11.17682,-0.66071 h 9.02189 l 2.31693,0.94007 c 1.8986,0.77033 2.52495,1.17759 3.46904,2.25561 0.99359,1.13453 1.223,1.63317 1.66728,3.62399 0.44746,2.00506 0.49435,2.93438 0.35681,7.07095 -0.14538,4.37233 -0.21386,4.88172 -0.83585,6.21771 -0.93743,2.01353 -3.15113,3.61639 -5.91222,4.28084 -1.7092,0.41131 -3.14013,0.47432 -10.31875,0.45436 -6.0591,-0.0169 -8.85694,-0.1261 -10.24854,-0.40019 z m 15.88894,-5.81987 c 1.12784,-0.30603 1.94367,-0.73609 2.62782,-1.38525 l 0.99219,-0.94145 -0.004,-3.71661 -0.004,-3.71662 -0.87463,-1.0338 c -0.64257,-0.75949 -1.2207,-1.12496 -2.17888,-1.37738 -1.6466,-0.43378 -9.00552,-0.47651 -11.487,-0.0667 -1.57498,0.2601 -1.95221,0.43765 -2.82171,1.3281 l -1.00368,1.02786 0.0591,3.761 0.059,3.761 0.85961,0.842 c 1.34407,1.31652 3.74977,1.86958 8.3521,1.92008 2.8255,0.031 4.20402,-0.0712 5.42396,-0.40223 z m 23.11098,6.07097 c -0.097,-0.097 -0.17638,-4.07652 -0.17638,-8.84335 0,-10.23796 0.0939,-10.88558 1.84399,-12.71659 2.67619,-2.79997 6.70016,-3.5571 17.47059,-3.28722 6.05095,0.15162 6.62314,0.20879 8.59896,0.85907 1.64643,0.54188 2.43995,0.9892 3.57187,2.01349 2.32806,2.10671 2.49207,2.94951 2.78039,14.28753 0.10627,4.17914 0.0569,6.06178 -0.17968,6.85142 l -0.32622,1.08882 -3.55249,-0.16057 c -1.95386,-0.0883 -3.58097,-0.19489 -3.61579,-0.23683 -0.0348,-0.0419 -0.14476,-3.49804 -0.24431,-7.68022 -0.18068,-7.5911 -0.18214,-7.60573 -0.86446,-8.64789 -1.16814,-1.78419 -2.41861,-2.13766 -7.54024,-2.13144 -5.73458,0.007 -7.62902,0.2905 -8.93088,1.3367 l -1.00801,0.81006 -0.19388,8.1497 -0.19388,8.1497 -1.59784,0.167 c -2.10043,0.21954 -5.61847,0.21389 -5.84174,-0.009 z m 46.03702,-0.0176 c -0.0918,-0.14849 -0.1734,-5.59836 -0.18138,-12.1108 -0.0132,-10.76561 0.0262,-11.88575 0.43337,-12.3357 0.3867,-0.4273 0.85223,-0.4949 3.40856,-0.4949 2.5879,0 3.01883,0.0642 3.42238,0.51016 0.42586,0.47057 0.45896,1.42948 0.42668,12.35842 -0.0193,6.51656 -0.0792,11.89246 -0.1332,11.94647 -0.2555,0.2555 -7.22283,0.37485 -7.37641,0.12635 z m 18.1863,-0.17607 c -0.14819,-0.3862 0.67289,-2.17756 2.13456,-4.65699 0.47183,-0.80037 1.51344,-2.70537 2.31469,-4.23334 1.37551,-2.62309 1.98037,-3.74977 4.04814,-7.54062 0.47626,-0.87313 1.19052,-2.18281 1.58726,-2.91042 3.26974,-5.99668 2.44907,-5.42522 7.78104,-5.41807 3.75671,0.005 4.46611,0.0714 4.94671,0.46302 0.30859,0.25142 1.15879,1.58823 1.88934,2.97068 3.13835,5.93884 7.56694,14.21677 7.9975,14.94896 1.56927,2.66857 3.1979,6.04917 3.07213,6.37691 -0.12149,0.3166 -0.85054,0.37101 -4.16336,0.31074 l -4.01608,-0.0731 -2.62617,-4.7625 c -1.44439,-2.61938 -3.51415,-6.44865 -4.59946,-8.50949 -1.91107,-3.62886 -2.55977,-4.57892 -2.82487,-4.13721 -0.49096,0.81804 -1.65381,2.99393 -4.3296,8.10146 -1.69085,3.22749 -3.59072,6.67183 -4.22194,7.65409 l -1.14767,1.78594 h -3.8501 c -3.0544,0 -3.87945,-0.0765 -3.99212,-0.37009 z m -442.15856,-18.70305 c -0.21784,-0.22874 -0.33073,-1.22058 -0.33073,-2.90581 v -2.55853 l 1.12728,-0.31561 c 0.82648,-0.23141 4.47989,-0.28722 13.69218,-0.20919 6.91071,0.0585 12.80304,0.17598 13.09408,0.26098 0.29105,0.085 0.79706,0.16367 1.12448,0.17481 0.57828,0.0197 0.59532,0.0997 0.59532,2.79837 v 2.77812 l -2.18282,0.003 c -1.20054,0.002 -7.71922,0.0748 -14.48593,0.16207 -9.97033,0.12852 -12.36584,0.0927 -12.63386,-0.18868 z m 341.53865,-7.49601 c -0.79844,-1.00383 -0.61314,-1.38095 1.74981,-3.56127 l 2.32352,-2.14393 3.57188,-0.001 3.57187,-0.001 2.19411,2.16986 c 2.50788,2.48017 2.6843,3.08234 1.01794,3.47472 -1.39651,0.32883 -2.77045,-0.12388 -4.7521,-1.56582 -0.88469,-0.64375 -1.83597,-1.17045 -2.11395,-1.17045 -0.27798,0 -1.29595,0.57446 -2.26216,1.27657 -1.41078,1.02515 -2.08334,1.329 -3.41508,1.54283 -1.16912,0.18772 -1.72544,0.18188 -1.88584,-0.0198 z"
       style="fill:#364a8f;fill-opacity:1"
       id="path1-6" />
    <g
       id="g22"
       transform="translate(-8.0422836,10.070455)">
      <path
         d="m 65.475968,139.32745 c -13.8894,-1.32017 -25.19341,-7.01965 -34.81633,-17.55438 -6.18878,-6.77519 -10.127,-15.38698 -11.91805,-26.06146 -0.69582,-4.14701 -0.70001,-14.432035 -0.008,-18.388545 0.75518,-4.31451 2.42889,-10.57825 3.07537,-11.50937 0.10104,-0.14552 0.401,-0.8599 0.66659,-1.5875 1.99576,-5.4676 7.6453,-13.51548 13.33015,-18.989082 3.77245,-3.632252 10.89879,-8.92446 12.01744,-8.92446 0.57299,0 0.63975,0.368196 0.96695,5.332904 0.29757,4.515321 1.83992,17.142088 2.66125,21.786888 0.28305,1.60073 0.70197,3.98198 0.93093,5.29167 1.7841,10.20507 3.63262,17.719705 7.84272,31.882285 1.90457,6.40685 4.8437,14.70085 6.70384,18.91771 0.19258,0.43656 1.03399,2.45913 1.8698,4.49459 0.83581,2.03547 2.10842,5.01203 2.82802,6.61459 0.71959,1.60255 1.58467,3.56858 1.92239,4.36894 0.33772,0.80037 0.80172,1.8124 1.0311,2.24896 0.53415,1.0166 0.5349,1.8838 0.002,2.08836 -0.42074,0.16146 -7.37778,0.15221 -9.10649,-0.0121 z"
         style="fill:url(#linearGradient8);fill-opacity:1"
         id="path1-1" />
      <path
         d="m 93.788884,144.13948 c -0.837928,-0.88124 -3.054279,-3.94004 -6.943634,-9.58294 -5.056012,-7.33556 -10.657564,-18.83718 -13.419575,-27.55429 -1.813939,-5.72492 -3.392369,-12.75498 -4.154209,-18.50214 -0.425525,-3.21006 -0.846459,-18.44969 -0.542995,-19.65879 0.291878,-1.16293 1.037286,-0.85169 2.295451,0.95845 3.39754,4.88809 8.683601,8.733225 15.134601,11.009045 4.646106,1.63908 11.049182,2.093995 15.847837,1.12591 8.10514,-1.63512 14.7065,-5.612015 19.06636,-11.486245 1.79796,-2.42247 2.16759,-2.33114 2.26913,0.56063 0.11775,3.35306 -0.89656,15.06992 -1.66468,19.22972 -1.98572,10.75376 -5.33154,20.94329 -10.16892,30.96887 -2.72253,5.64248 -5.9893,11.2679 -8.28966,14.27488 -0.11132,0.14552 -1.46766,1.99099 -3.0141,4.10104 -4.480372,6.11333 -4.751569,6.30591 -6.415606,4.55586 z"
         style="fill:url(#linearGradient19);fill-opacity:1"
         id="path1-2" />
      <path
         d="m 96.184175,60.838703 c -4.71452,-1.21109 -8.95084,-3.41134 -12.00186,-6.23349 -3.51143,-3.248031 -6.38668,-10.15663 -6.38668,-15.345827 0,-2.603089 1.0544,-7.484716 2.15833,-9.992595 2.24763,-5.106078 6.98696,-10.201413 11.69706,-12.575694 1.96521,-0.990625 7.13439,-2.992903 7.726632,-2.992903 0.766083,0 1.172133,0.824823 1.172133,2.381003 0,1.982876 0.4396,5.244804 0.98061,7.276288 0.55426,2.081264 2.5763,6.380384 4.15472,8.833507 3.44849,5.359477 11.60472,10.930809 17.28797,11.809011 1.761,0.272118 1.8944,1.020719 0.62521,3.508539 -1.31867,2.5848 -3.18413,5.099421 -5.44097,7.334361 -2.7124,2.68607 -5.44261,4.30081 -9.40545,5.56272 -1.96967,0.62721 -2.77469,0.72824 -6.4823,0.8135 -3.444925,0.0792 -4.578245,0.009 -6.085405,-0.37842 z"
         style="fill:url(#linearGradient22);fill-opacity:1"
         id="path1-16" />
      <path
         d="m 125.66234,139.82562 c 13.8894,-1.32017 25.19341,-7.01965 34.81633,-17.55438 6.18878,-6.77519 10.127,-15.38698 11.91805,-26.06146 0.69582,-4.14701 0.70001,-14.432035 0.008,-18.388545 -0.75518,-4.31451 -2.42889,-10.57825 -3.07537,-11.50937 -0.10104,-0.14552 -0.401,-0.8599 -0.66659,-1.5875 -1.99576,-5.4676 -7.6453,-13.51548 -13.33015,-18.989082 -3.77245,-3.632252 -10.89879,-8.92446 -12.01744,-8.92446 -0.57299,0 -0.63975,0.368196 -0.96695,5.332904 -0.29757,4.515321 -1.83992,17.142088 -2.66125,21.786888 -0.28305,1.60073 -0.70197,3.98198 -0.93093,5.29167 -1.7841,10.20507 -3.63262,17.719705 -7.84272,31.882285 -1.90457,6.40685 -4.8437,14.70085 -6.70384,18.91771 -0.19258,0.43656 -1.03399,2.45913 -1.8698,4.49459 -0.83581,2.03547 -2.10842,5.01203 -2.82802,6.61459 -0.71959,1.60255 -1.58467,3.56858 -1.92239,4.36894 -0.33772,0.80037 -0.80172,1.8124 -1.0311,2.24896 -0.53415,1.0166 -0.5349,1.8838 -0.002,2.08836 0.42074,0.16146 7.37778,0.15221 9.10649,-0.0121 z"
         style="fill:url(#linearGradient16);fill-opacity:1"
         id="path1-1-1"
         inkscape:transform-center-x="98.004999"
         inkscape:transform-center-y="-16.546299" />
    </g>
  </g>
</svg>
